# MagicaVoxel @ Ephtracy

# material
mtllib rfs.mtl
usemtl palette

# normals
vn -1 0 0
vn 1 0 0
vn 0 0 1
vn 0 0 -1
vn 0 -1 0
vn 0 1 0

# texcoords
vt 0.0449219 0.5
vt 0.748047 0.5
vt 0.779297 0.5
vt 0.958984 0.5
vt 0.994141 0.5

# verts
v -20 0 20
v -20 0 18
v -20 0 17
v -20 0 -20
v -20 2 18
v -20 2 17
v -20 3 20
v -20 3 -20
v -7 3 1
v -7 3 -2
v -7 5 1
v -7 5 -2
v -6 3 5
v -6 3 3
v -6 3 2
v -6 3 1
v -6 5 5
v -6 5 3
v -6 5 2
v -6 5 1
v -5 3 9
v -5 3 7
v -5 3 6
v -5 3 5
v -5 5 9
v -5 5 7
v -5 5 6
v -5 5 5
v -4 3 10
v -4 3 9
v -4 5 10
v -4 5 9
v 0 2 3
v 0 2 -1
v 0 3 14
v 0 3 3
v 0 3 -1
v 0 3 -2
v 0 5 14
v 0 5 -2
v 4 3 9
v 4 3 8
v 4 5 9
v 4 5 8
v 5 3 10
v 5 3 9
v 5 5 10
v 5 5 9
v 6 3 11
v 6 3 10
v 6 5 11
v 6 5 10
v 7 3 12
v 7 3 11
v 7 5 12
v 7 5 11
v 8 3 13
v 8 3 12
v 8 5 13
v 8 5 12
v 9 3 14
v 9 3 13
v 9 3 4
v 9 3 -0
v 9 5 14
v 9 5 13
v 9 5 4
v 9 5 -0
v -1 2 3
v -1 2 -1
v -1 3 10
v -1 3 7
v -1 3 6
v -1 3 3
v -1 3 2
v -1 3 -1
v -1 3 -2
v -1 5 10
v -1 5 7
v -1 5 6
v -1 5 3
v -1 5 2
v -1 5 -2
v 3 3 14
v 3 3 8
v 3 3 4
v 3 3 -0
v 3 5 14
v 3 5 8
v 3 5 4
v 3 5 -0
v 5 3 7
v 5 3 6
v 5 5 7
v 5 5 6
v 6 3 8
v 6 3 7
v 6 5 8
v 6 5 7
v 7 3 9
v 7 3 8
v 7 5 9
v 7 5 8
v 8 3 10
v 8 3 9
v 8 5 10
v 8 5 9
v 9 3 11
v 9 3 10
v 9 5 11
v 9 5 10
v 10 3 12
v 10 3 11
v 10 3 6
v 10 3 4
v 10 3 -1
v 10 3 -2
v 10 5 12
v 10 5 11
v 10 5 6
v 10 5 4
v 10 5 -1
v 10 5 -2
v 11 3 13
v 11 3 12
v 11 3 4
v 11 3 3
v 11 3 -0
v 11 3 -1
v 11 5 13
v 11 5 12
v 11 5 4
v 11 5 3
v 11 5 -0
v 11 5 -1
v 12 3 14
v 12 3 13
v 12 3 3
v 12 3 -0
v 12 5 14
v 12 5 13
v 12 5 3
v 12 5 -0
v 20 0 20
v 20 0 18
v 20 0 17
v 20 0 -20
v 20 2 18
v 20 2 17
v 20 3 20
v 20 3 -20
v -20 0 20
v -20 3 20
v 20 0 20
v 20 3 20
v -20 0 17
v -20 2 17
v 20 0 17
v 20 2 17
v 0 3 14
v 0 5 14
v 3 3 14
v 3 5 14
v 9 3 14
v 9 5 14
v 12 3 14
v 12 5 14
v 8 3 13
v 8 5 13
v 9 3 13
v 9 5 13
v 7 3 12
v 7 5 12
v 8 3 12
v 8 5 12
v 6 3 11
v 6 5 11
v 7 3 11
v 7 5 11
v -4 3 10
v -4 5 10
v -1 3 10
v -1 5 10
v 5 3 10
v 5 5 10
v 6 3 10
v 6 5 10
v -5 3 9
v -5 5 9
v -4 3 9
v -4 5 9
v 4 3 9
v 4 5 9
v 5 3 9
v 5 5 9
v 3 3 8
v 3 5 8
v 4 3 8
v 4 5 8
v -5 3 6
v -5 5 6
v -1 3 6
v -1 5 6
v 5 3 6
v 5 5 6
v 10 3 6
v 10 5 6
v -6 3 5
v -6 5 5
v -5 3 5
v -5 5 5
v 10 3 4
v 10 5 4
v 11 3 4
v 11 5 4
v 11 3 3
v 11 5 3
v 12 3 3
v 12 5 3
v -6 3 2
v -6 5 2
v -1 3 2
v -1 5 2
v -7 3 1
v -7 5 1
v -6 3 1
v -6 5 1
v 3 3 -0
v 3 5 -0
v 9 3 -0
v 9 5 -0
v -1 2 -1
v -1 3 -1
v 0 2 -1
v 0 3 -1
v -20 0 18
v -20 2 18
v 20 0 18
v 20 2 18
v 11 3 13
v 11 5 13
v 12 3 13
v 12 5 13
v 10 3 12
v 10 5 12
v 11 3 12
v 11 5 12
v 9 3 11
v 9 5 11
v 10 3 11
v 10 5 11
v 8 3 10
v 8 5 10
v 9 3 10
v 9 5 10
v 7 3 9
v 7 5 9
v 8 3 9
v 8 5 9
v 6 3 8
v 6 5 8
v 7 3 8
v 7 5 8
v -5 3 7
v -5 5 7
v -1 3 7
v -1 5 7
v 5 3 7
v 5 5 7
v 6 3 7
v 6 5 7
v 3 3 4
v 3 5 4
v 9 3 4
v 9 5 4
v -6 3 3
v -6 5 3
v -1 2 3
v -1 3 3
v -1 5 3
v 0 2 3
v 0 3 3
v 11 3 -0
v 11 5 -0
v 12 3 -0
v 12 5 -0
v 10 3 -1
v 10 5 -1
v 11 3 -1
v 11 5 -1
v -7 3 -2
v -7 5 -2
v -1 3 -2
v -1 5 -2
v 0 3 -2
v 0 5 -2
v 10 3 -2
v 10 5 -2
v -20 0 -20
v -20 3 -20
v 20 0 -20
v 20 3 -20
v -20 0 20
v 20 0 20
v -20 0 18
v 20 0 18
v -20 0 17
v 20 0 17
v -20 0 -20
v 20 0 -20
v -20 2 18
v 20 2 18
v -20 2 17
v 20 2 17
v -1 2 3
v 0 2 3
v -1 2 -1
v 0 2 -1
v -20 3 20
v 20 3 20
v 0 3 14
v 3 3 14
v 9 3 14
v 12 3 14
v 8 3 13
v 9 3 13
v 11 3 13
v 12 3 13
v 7 3 12
v 8 3 12
v 10 3 12
v 11 3 12
v 6 3 11
v 7 3 11
v 9 3 11
v 10 3 11
v -4 3 10
v -1 3 10
v 5 3 10
v 6 3 10
v 8 3 10
v 9 3 10
v -5 3 9
v -4 3 9
v 4 3 9
v 5 3 9
v 7 3 9
v 8 3 9
v 3 3 8
v 4 3 8
v 6 3 8
v 7 3 8
v -5 3 7
v -1 3 7
v 5 3 7
v 6 3 7
v -5 3 6
v -1 3 6
v 5 3 6
v 10 3 6
v -6 3 5
v -5 3 5
v 3 3 4
v 9 3 4
v 10 3 4
v 11 3 4
v -6 3 3
v -1 3 3
v 0 3 3
v 11 3 3
v 12 3 3
v -6 3 2
v -1 3 2
v -7 3 1
v -6 3 1
v 3 3 -0
v 9 3 -0
v 11 3 -0
v 12 3 -0
v -1 3 -1
v 0 3 -1
v 10 3 -1
v 11 3 -1
v -7 3 -2
v -1 3 -2
v 0 3 -2
v 10 3 -2
v -20 3 -20
v 20 3 -20
v 0 5 14
v 3 5 14
v 9 5 14
v 12 5 14
v 8 5 13
v 9 5 13
v 11 5 13
v 12 5 13
v 7 5 12
v 8 5 12
v 10 5 12
v 11 5 12
v 6 5 11
v 7 5 11
v 9 5 11
v 10 5 11
v -4 5 10
v -1 5 10
v 5 5 10
v 6 5 10
v 8 5 10
v 9 5 10
v -5 5 9
v -4 5 9
v 4 5 9
v 5 5 9
v 7 5 9
v 8 5 9
v 3 5 8
v 4 5 8
v 6 5 8
v 7 5 8
v -5 5 7
v -1 5 7
v 5 5 7
v 6 5 7
v -5 5 6
v -1 5 6
v 5 5 6
v 10 5 6
v -6 5 5
v -5 5 5
v 3 5 4
v 9 5 4
v 10 5 4
v 11 5 4
v -6 5 3
v -1 5 3
v 11 5 3
v 12 5 3
v -6 5 2
v -1 5 2
v -7 5 1
v -6 5 1
v 3 5 -0
v 9 5 -0
v 11 5 -0
v 12 5 -0
v 10 5 -1
v 11 5 -1
v -7 5 -2
v -1 5 -2
v 0 5 -2
v 10 5 -2

# faces
f 5/5/1 2/5/1 1/5/1
f 6/5/1 4/5/1 3/5/1
f 7/5/1 5/5/1 1/5/1
f 7/5/1 6/5/1 5/5/1
f 8/5/1 4/5/1 6/5/1
f 8/5/1 6/5/1 7/5/1
f 11/3/1 10/3/1 9/3/1
f 12/3/1 10/3/1 11/3/1
f 17/1/1 14/1/1 13/1/1
f 18/1/1 14/1/1 17/1/1
f 19/3/1 16/3/1 15/3/1
f 20/3/1 16/3/1 19/3/1
f 25/2/1 22/2/1 21/2/1
f 26/2/1 22/2/1 25/2/1
f 27/1/1 24/1/1 23/1/1
f 28/1/1 24/1/1 27/1/1
f 31/2/1 30/2/1 29/2/1
f 32/2/1 30/2/1 31/2/1
f 36/5/1 34/5/1 33/5/1
f 37/5/1 34/5/1 36/5/1
f 39/4/1 36/4/1 35/4/1
f 39/4/1 38/4/1 37/4/1
f 39/4/1 37/4/1 36/4/1
f 40/4/1 38/4/1 39/4/1
f 43/4/1 42/4/1 41/4/1
f 44/4/1 42/4/1 43/4/1
f 47/4/1 46/4/1 45/4/1
f 48/4/1 46/4/1 47/4/1
f 51/4/1 50/4/1 49/4/1
f 52/4/1 50/4/1 51/4/1
f 55/4/1 54/4/1 53/4/1
f 56/4/1 54/4/1 55/4/1
f 59/4/1 58/4/1 57/4/1
f 60/4/1 58/4/1 59/4/1
f 65/4/1 62/4/1 61/4/1
f 66/4/1 62/4/1 65/4/1
f 67/4/1 64/4/1 63/4/1
f 68/4/1 64/4/1 67/4/1
f 69/5/2 70/5/2 74/5/2
f 74/5/2 70/5/2 75/5/2
f 75/5/2 70/5/2 76/5/2
f 71/2/2 72/2/2 78/2/2
f 78/2/2 72/2/2 79/2/2
f 73/1/2 74/1/2 80/1/2
f 80/1/2 74/1/2 81/1/2
f 76/3/2 77/3/2 82/3/2
f 75/3/2 76/3/2 82/3/2
f 82/3/2 77/3/2 83/3/2
f 84/4/2 85/4/2 88/4/2
f 88/4/2 85/4/2 89/4/2
f 86/4/2 87/4/2 90/4/2
f 90/4/2 87/4/2 91/4/2
f 92/4/2 93/4/2 94/4/2
f 94/4/2 93/4/2 95/4/2
f 96/4/2 97/4/2 98/4/2
f 98/4/2 97/4/2 99/4/2
f 100/4/2 101/4/2 102/4/2
f 102/4/2 101/4/2 103/4/2
f 104/4/2 105/4/2 106/4/2
f 106/4/2 105/4/2 107/4/2
f 108/4/2 109/4/2 110/4/2
f 110/4/2 109/4/2 111/4/2
f 112/4/2 113/4/2 118/4/2
f 118/4/2 113/4/2 119/4/2
f 114/4/2 115/4/2 120/4/2
f 120/4/2 115/4/2 121/4/2
f 116/4/2 117/4/2 122/4/2
f 122/4/2 117/4/2 123/4/2
f 124/4/2 125/4/2 130/4/2
f 130/4/2 125/4/2 131/4/2
f 126/4/2 127/4/2 132/4/2
f 132/4/2 127/4/2 133/4/2
f 128/4/2 129/4/2 134/4/2
f 134/4/2 129/4/2 135/4/2
f 136/4/2 137/4/2 140/4/2
f 140/4/2 137/4/2 141/4/2
f 138/4/2 139/4/2 142/4/2
f 142/4/2 139/4/2 143/4/2
f 144/5/2 145/5/2 148/5/2
f 146/5/2 147/5/2 149/5/2
f 144/5/2 148/5/2 150/5/2
f 148/5/2 149/5/2 150/5/2
f 149/5/2 147/5/2 151/5/2
f 150/5/2 149/5/2 151/5/2
f 154/5/3 153/5/3 152/5/3
f 155/5/3 153/5/3 154/5/3
f 158/5/3 157/5/3 156/5/3
f 159/5/3 157/5/3 158/5/3
f 162/4/3 161/4/3 160/4/3
f 163/4/3 161/4/3 162/4/3
f 166/4/3 165/4/3 164/4/3
f 167/4/3 165/4/3 166/4/3
f 170/4/3 169/4/3 168/4/3
f 171/4/3 169/4/3 170/4/3
f 174/4/3 173/4/3 172/4/3
f 175/4/3 173/4/3 174/4/3
f 178/4/3 177/4/3 176/4/3
f 179/4/3 177/4/3 178/4/3
f 182/2/3 181/2/3 180/2/3
f 183/2/3 181/2/3 182/2/3
f 186/4/3 185/4/3 184/4/3
f 187/4/3 185/4/3 186/4/3
f 190/2/3 189/2/3 188/2/3
f 191/2/3 189/2/3 190/2/3
f 194/4/3 193/4/3 192/4/3
f 195/4/3 193/4/3 194/4/3
f 198/4/3 197/4/3 196/4/3
f 199/4/3 197/4/3 198/4/3
f 202/1/3 201/1/3 200/1/3
f 203/1/3 201/1/3 202/1/3
f 206/4/3 205/4/3 204/4/3
f 207/4/3 205/4/3 206/4/3
f 210/1/3 209/1/3 208/1/3
f 211/1/3 209/1/3 210/1/3
f 214/4/3 213/4/3 212/4/3
f 215/4/3 213/4/3 214/4/3
f 218/4/3 217/4/3 216/4/3
f 219/4/3 217/4/3 218/4/3
f 222/3/3 221/3/3 220/3/3
f 223/3/3 221/3/3 222/3/3
f 226/3/3 225/3/3 224/3/3
f 227/3/3 225/3/3 226/3/3
f 230/4/3 229/4/3 228/4/3
f 231/4/3 229/4/3 230/4/3
f 234/5/3 233/5/3 232/5/3
f 235/5/3 233/5/3 234/5/3
f 236/5/4 237/5/4 238/5/4
f 238/5/4 237/5/4 239/5/4
f 240/4/4 241/4/4 242/4/4
f 242/4/4 241/4/4 243/4/4
f 244/4/4 245/4/4 246/4/4
f 246/4/4 245/4/4 247/4/4
f 248/4/4 249/4/4 250/4/4
f 250/4/4 249/4/4 251/4/4
f 252/4/4 253/4/4 254/4/4
f 254/4/4 253/4/4 255/4/4
f 256/4/4 257/4/4 258/4/4
f 258/4/4 257/4/4 259/4/4
f 260/4/4 261/4/4 262/4/4
f 262/4/4 261/4/4 263/4/4
f 264/2/4 265/2/4 266/2/4
f 266/2/4 265/2/4 267/2/4
f 268/4/4 269/4/4 270/4/4
f 270/4/4 269/4/4 271/4/4
f 272/4/4 273/4/4 274/4/4
f 274/4/4 273/4/4 275/4/4
f 276/1/4 277/1/4 279/1/4
f 279/1/4 277/1/4 280/1/4
f 278/5/4 279/5/4 281/5/4
f 281/5/4 279/5/4 282/5/4
f 283/4/4 284/4/4 285/4/4
f 285/4/4 284/4/4 286/4/4
f 287/4/4 288/4/4 289/4/4
f 289/4/4 288/4/4 290/4/4
f 291/3/4 292/3/4 293/3/4
f 293/3/4 292/3/4 294/3/4
f 295/4/4 296/4/4 297/4/4
f 297/4/4 296/4/4 298/4/4
f 299/5/4 300/5/4 301/5/4
f 301/5/4 300/5/4 302/5/4
f 305/5/5 304/5/5 303/5/5
f 306/5/5 304/5/5 305/5/5
f 309/5/5 308/5/5 307/5/5
f 310/5/5 308/5/5 309/5/5
f 313/5/5 312/5/5 311/5/5
f 314/5/5 312/5/5 313/5/5
f 315/5/6 316/5/6 317/5/6
f 317/5/6 316/5/6 318/5/6
f 319/5/6 320/5/6 321/5/6
f 321/5/6 320/5/6 322/5/6
f 322/5/6 320/5/6 323/5/6
f 323/5/6 320/5/6 324/5/6
f 322/5/6 323/5/6 325/5/6
f 325/5/6 323/5/6 326/5/6
f 324/5/6 320/5/6 328/5/6
f 322/5/6 325/5/6 329/5/6
f 329/5/6 325/5/6 330/5/6
f 327/5/6 328/5/6 332/5/6
f 322/5/6 329/5/6 333/5/6
f 333/5/6 329/5/6 334/5/6
f 331/5/6 332/5/6 336/5/6
f 319/5/6 321/5/6 337/5/6
f 337/5/6 321/5/6 338/5/6
f 322/5/6 333/5/6 339/5/6
f 339/5/6 333/5/6 340/5/6
f 335/5/6 336/5/6 342/5/6
f 319/5/6 337/5/6 343/5/6
f 343/5/6 337/5/6 344/5/6
f 322/5/6 339/5/6 345/5/6
f 345/5/6 339/5/6 346/5/6
f 341/5/6 342/5/6 348/5/6
f 322/5/6 345/5/6 349/5/6
f 349/5/6 345/5/6 350/5/6
f 347/5/6 348/5/6 352/5/6
f 319/5/6 343/5/6 353/5/6
f 338/5/6 321/5/6 354/5/6
f 351/5/6 352/5/6 356/5/6
f 353/5/6 354/5/6 357/5/6
f 319/5/6 353/5/6 357/5/6
f 354/5/6 321/5/6 358/5/6
f 357/5/6 354/5/6 358/5/6
f 355/5/6 356/5/6 359/5/6
f 336/5/6 332/5/6 360/5/6
f 359/5/6 356/5/6 360/5/6
f 356/5/6 352/5/6 360/5/6
f 342/5/6 336/5/6 360/5/6
f 348/5/6 342/5/6 360/5/6
f 352/5/6 348/5/6 360/5/6
f 319/5/6 357/5/6 361/5/6
f 361/5/6 357/5/6 362/5/6
f 360/5/6 332/5/6 365/5/6
f 332/5/6 328/5/6 366/5/6
f 365/5/6 332/5/6 366/5/6
f 319/5/6 361/5/6 367/5/6
f 358/5/6 321/5/6 368/5/6
f 368/5/6 321/5/6 369/5/6
f 366/5/6 328/5/6 370/5/6
f 328/5/6 320/5/6 371/5/6
f 370/5/6 328/5/6 371/5/6
f 319/5/6 367/5/6 372/5/6
f 367/5/6 368/5/6 372/5/6
f 372/5/6 368/5/6 373/5/6
f 319/5/6 372/5/6 374/5/6
f 374/5/6 372/5/6 375/5/6
f 363/5/6 364/5/6 376/5/6
f 376/5/6 364/5/6 377/5/6
f 371/5/6 320/5/6 379/5/6
f 378/5/6 379/5/6 383/5/6
f 319/5/6 374/5/6 384/5/6
f 380/5/6 381/5/6 385/5/6
f 385/5/6 381/5/6 386/5/6
f 382/5/6 383/5/6 387/5/6
f 319/5/6 384/5/6 388/5/6
f 386/5/6 387/5/6 388/5/6
f 385/5/6 386/5/6 388/5/6
f 384/5/6 385/5/6 388/5/6
f 387/5/6 383/5/6 389/5/6
f 388/5/6 387/5/6 389/5/6
f 379/5/6 320/5/6 389/5/6
f 383/5/6 379/5/6 389/5/6
f 392/4/6 393/4/6 395/4/6
f 395/4/6 393/4/6 396/4/6
f 396/4/6 393/4/6 397/4/6
f 394/4/6 395/4/6 399/4/6
f 395/4/6 396/4/6 399/4/6
f 399/4/6 396/4/6 400/4/6
f 400/4/6 396/4/6 401/4/6
f 398/4/6 399/4/6 403/4/6
f 399/4/6 400/4/6 403/4/6
f 403/4/6 400/4/6 404/4/6
f 404/4/6 400/4/6 405/4/6
f 402/4/6 403/4/6 409/4/6
f 403/4/6 404/4/6 409/4/6
f 409/4/6 404/4/6 410/4/6
f 410/4/6 404/4/6 411/4/6
f 406/2/6 407/2/6 413/2/6
f 408/4/6 409/4/6 415/4/6
f 409/4/6 410/4/6 415/4/6
f 415/4/6 410/4/6 416/4/6
f 416/4/6 410/4/6 417/4/6
f 390/4/6 391/4/6 418/4/6
f 414/4/6 415/4/6 419/4/6
f 415/4/6 416/4/6 419/4/6
f 419/4/6 416/4/6 420/4/6
f 420/4/6 416/4/6 421/4/6
f 412/2/6 413/2/6 422/2/6
f 413/2/6 407/2/6 423/2/6
f 422/2/6 413/2/6 423/2/6
f 418/4/6 419/4/6 424/4/6
f 419/4/6 420/4/6 424/4/6
f 424/4/6 420/4/6 425/4/6
f 418/4/6 424/4/6 428/4/6
f 426/1/6 427/1/6 431/1/6
f 418/4/6 428/4/6 432/4/6
f 428/4/6 429/4/6 432/4/6
f 390/4/6 418/4/6 432/4/6
f 432/4/6 429/4/6 433/4/6
f 433/4/6 429/4/6 434/4/6
f 430/1/6 431/1/6 436/1/6
f 431/1/6 427/1/6 437/1/6
f 436/1/6 431/1/6 437/1/6
f 434/4/6 435/4/6 438/4/6
f 433/4/6 434/4/6 438/4/6
f 440/3/6 441/3/6 443/3/6
f 390/4/6 432/4/6 444/4/6
f 438/4/6 439/4/6 445/4/6
f 433/4/6 438/4/6 445/4/6
f 445/4/6 439/4/6 446/4/6
f 446/4/6 439/4/6 447/4/6
f 444/4/6 445/4/6 448/4/6
f 445/4/6 446/4/6 448/4/6
f 448/4/6 446/4/6 449/4/6
f 442/3/6 443/3/6 450/3/6
f 443/3/6 441/3/6 451/3/6
f 450/3/6 443/3/6 451/3/6
f 390/4/6 444/4/6 452/4/6
f 444/4/6 448/4/6 452/4/6
f 452/4/6 448/4/6 453/4/6
